<?xml version="1.0" encoding="utf-8"?>
<svg xmlns="http://www.w3.org/2000/svg" viewBox="82.5 37.5 175 175" width="175px" height="175px"><defs><filter id="56e1d7fe-77cc-491d-991f-ae6f37c6df4f"><feColorMatrix type="matrix" values="0 0 0 0 0.99609375  0 0 0 0 0.99609375  0 0 0 0 0.99609375  0 0 0 1 0"/></filter><filter id="ba8d6fe4-9b03-4611-8a7b-227d15f4033c"><feColorMatrix type="matrix" values="0 0 0 0 0  0 0 0 0 0  0 0 0 0 0  0 0 0 1 0"/></filter></defs><mask id="ee512d9b-18bf-4a47-97a2-804274d7356c"><g fill="#35495e" class="j-b-g-c iconbgsvg"><g transform="translate(0,0)"><g><rect fill="#35495e" fill-opacity="0" stroke-width="2" x="0" y="0" width="175" height="175" class="image-rect" stroke="#000"/><svg filter="url(#56e1d7fe-77cc-491d-991f-ae6f37c6df4f)" x="0" y="0" width="175" height="175" filtersec="colorsf4146917657" class="image-svg-container primary" style="overflow: visible;"><svg xmlns="http://www.w3.org/2000/svg" viewBox="5 5 90 90" style="overflow: visible;"><g transform="scale(1, 1) skewX(0)"><path d="M75.921 5H24.305C13.752 5 5 13.752 5 24.305v51.616C5 86.472 13.752 95 24.305 95h51.616C86.472 95 95 86.472 95 75.921V24.305C95 13.752 86.472 5 75.921 5z" fill="#000000"/></g></svg></svg></g></g><g hollow-target="textRect" transform="translate(40.74067687988281,29.377063751220703)" filter="url(#ba8d6fe4-9b03-4611-8a7b-227d15f4033c)"><g class="iconsvg-imagesvg" transform="translate(0,0)"><g><svg filter="url(#colors3520608847)" x="0" y="0" width="93.51864406779663" height="116.24587511068704" filtersec="colorsf3015894769" class="image-svg-svg primary" style="overflow: visible;"><svg xmlns="http://www.w3.org/2000/svg" version="1.1" x="0px" y="0px" viewBox="0 0 80.4489974975586 100" enable-background="new 0 0 80.449 100" style="overflow: visible;"><path d="M69.416,100H11.033C4.95,100,0,95.051,0,88.967V19.703C0,13.62,4.95,8.67,11.033,8.67h5.996V6.13  c0-3.839,1.833-6.13,4.904-6.13s4.904,2.291,4.904,6.129v2.54h8.581v-2.54C35.417,2.291,37.25,0,40.321,0s4.904,2.291,4.904,6.129  v2.54h8.581v-2.54C53.806,2.291,55.639,0,58.709,0c3.071,0,4.904,2.291,4.904,6.129v2.54h5.803c6.084,0,11.033,4.95,11.033,11.033  v69.264C80.449,95.051,75.5,100,69.416,100z M9.807,21.275c0,1.182,0,53.597,0,66.045c0,1.68,1.375,2.873,2.753,2.873  c1.199,0,44.006,0,55.126,0c1.532,0,2.955-1.194,2.955-2.873c0-12.422,0-64.661,0-66.045c0-1.571-1.422-2.798-2.916-2.798  c-1.456,0-4.112,0-4.112,0v2.363c0,3.838-1.833,6.129-4.904,6.129s-4.904-2.291-4.904-6.129v-2.363h-8.581v2.363  c0,3.838-1.833,6.129-4.904,6.129s-4.904-2.291-4.904-6.129v-2.363h-8.581v2.363c0,3.838-1.833,6.129-4.904,6.129  s-4.904-2.291-4.904-6.129v-2.363c0,0-3.09,0-4.469,0S9.807,19.742,9.807,21.275z"/><path d="M63.818,41.272c0,2.031-1.646,3.678-3.678,3.678H20.911c-2.03,0-3.678-1.647-3.678-3.678l0,0  c0-2.031,1.647-3.678,3.678-3.678H60.14C62.172,37.594,63.818,39.241,63.818,41.272L63.818,41.272z"/><path d="M63.818,58.435c0,2.032-1.646,3.678-3.678,3.678H20.911c-2.03,0-3.678-1.646-3.678-3.678l0,0  c0-2.03,1.647-3.678,3.678-3.678H60.14C62.172,54.757,63.818,56.404,63.818,58.435L63.818,58.435z"/><path d="M63.818,75.597c0,2.032-1.646,3.678-3.678,3.678H20.911c-2.03,0-3.678-1.646-3.678-3.678l0,0  c0-2.03,1.647-3.678,3.678-3.678H60.14C62.172,71.919,63.818,73.567,63.818,75.597L63.818,75.597z"/></svg></svg></g></g><g transform="translate(46.75932312011719,123.2458724975586)"><g fill-rule="" class="tp-name iconsvg-namesvg"><g transform="scale(1)"><g><path d="" transform="translate(0, 0)"/></g></g></g></g></g></g></mask><g fill="#35495e" class="j-b-g-c iconbgsvg" mask="url(#ee512d9b-18bf-4a47-97a2-804274d7356c)" transform="matrix(1, 0, 0, 1, 82.5, 37.499999999999986)" id="object-0"><g transform="translate(0,0)"><g><rect fill="#35495e" fill-opacity="0" stroke-width="2" x="0" y="0" width="175" height="175" class="image-rect"/><svg filter="url(#colors8343829268)" x="0" y="0" width="175" height="175" filtersec="colorsf4146917657" class="image-svg-container primary" style="overflow: visible;"><svg xmlns="http://www.w3.org/2000/svg" viewBox="5 5 90 90" style="overflow: visible;"><g transform="scale(1, 1) skewX(0)"><path d="M75.921 5H24.305C13.752 5 5 13.752 5 24.305v51.616C5 86.472 13.752 95 24.305 95h51.616C86.472 95 95 86.472 95 75.921V24.305C95 13.752 86.472 5 75.921 5z" fill="#000000"/></g></svg></svg><defs><filter id="colors8343829268"><feColorMatrix type="matrix" values="0 0 0 0 0.20703125  0 0 0 0 0.28515625  0 0 0 0 0.3671875  0 0 0 1 0" class="icon-fecolormatrix"/></filter></defs></g></g><g hollow-target="textRect" transform="translate(40.74067687988281,29.377063751220703)"><g class="iconsvg-imagesvg" transform="translate(0,0)"><g><svg filter="url(#colors3520608847)" x="0" y="0" width="93.51864406779663" height="116.24587511068704" filtersec="colorsf3015894769" class="image-svg-svg primary" style="overflow: visible;"><svg xmlns="http://www.w3.org/2000/svg" version="1.1" x="0px" y="0px" viewBox="0 0 80.4489974975586 100" enable-background="new 0 0 80.449 100"><path d="M69.416,100H11.033C4.95,100,0,95.051,0,88.967V19.703C0,13.62,4.95,8.67,11.033,8.67h5.996V6.13  c0-3.839,1.833-6.13,4.904-6.13s4.904,2.291,4.904,6.129v2.54h8.581v-2.54C35.417,2.291,37.25,0,40.321,0s4.904,2.291,4.904,6.129  v2.54h8.581v-2.54C53.806,2.291,55.639,0,58.709,0c3.071,0,4.904,2.291,4.904,6.129v2.54h5.803c6.084,0,11.033,4.95,11.033,11.033  v69.264C80.449,95.051,75.5,100,69.416,100z M9.807,21.275c0,1.182,0,53.597,0,66.045c0,1.68,1.375,2.873,2.753,2.873  c1.199,0,44.006,0,55.126,0c1.532,0,2.955-1.194,2.955-2.873c0-12.422,0-64.661,0-66.045c0-1.571-1.422-2.798-2.916-2.798  c-1.456,0-4.112,0-4.112,0v2.363c0,3.838-1.833,6.129-4.904,6.129s-4.904-2.291-4.904-6.129v-2.363h-8.581v2.363  c0,3.838-1.833,6.129-4.904,6.129s-4.904-2.291-4.904-6.129v-2.363h-8.581v2.363c0,3.838-1.833,6.129-4.904,6.129  s-4.904-2.291-4.904-6.129v-2.363c0,0-3.09,0-4.469,0S9.807,19.742,9.807,21.275z"/><path d="M63.818,41.272c0,2.031-1.646,3.678-3.678,3.678H20.911c-2.03,0-3.678-1.647-3.678-3.678l0,0  c0-2.031,1.647-3.678,3.678-3.678H60.14C62.172,37.594,63.818,39.241,63.818,41.272L63.818,41.272z"/><path d="M63.818,58.435c0,2.032-1.646,3.678-3.678,3.678H20.911c-2.03,0-3.678-1.646-3.678-3.678l0,0  c0-2.03,1.647-3.678,3.678-3.678H60.14C62.172,54.757,63.818,56.404,63.818,58.435L63.818,58.435z"/><path d="M63.818,75.597c0,2.032-1.646,3.678-3.678,3.678H20.911c-2.03,0-3.678-1.646-3.678-3.678l0,0  c0-2.03,1.647-3.678,3.678-3.678H60.14C62.172,71.919,63.818,73.567,63.818,75.597L63.818,75.597z"/></svg></svg><defs><filter id="colors3520608847"><feColorMatrix type="matrix" values="0 0 0 0 0.20703125  0 0 0 0 0.28515625  0 0 0 0 0.3671875  0 0 0 1 0" class="icon-fecolormatrix"/></filter></defs></g></g><g transform="translate(46.75932312011719,123.2458724975586)"><g fill-rule="" class="tp-name iconsvg-namesvg"><g transform="scale(1)"><g><path d="" transform="translate(0, 0)"/></g></g></g></g></g></g></svg>